<svg width="155" height="216" viewBox="0 0 155 216" fill="none" xmlns="http://www.w3.org/2000/svg">
<path d="M1 92.7999L16.3 77.4999M31.6 62.2L16.3 77.4999M16.3 77.4999L1 62.2L31.6 92.7999" stroke="#5B5B60" stroke-width= "2px"/>
<path d="M1 31.6L16.3 16.3M31.6 1L16.3 16.3M16.3 16.3L1 1L31.6 31.6" stroke="#5B5B60" stroke-width= "2px"/>
<path d="M1 154L16.3 138.7M31.6 123.4L16.3 138.7M16.3 138.7L1 123.4L31.6 154" stroke="#5B5B60" stroke-width= "2px"/>
<path d="M0.999985 215.2L16.3 199.9M31.6 184.6L16.3 199.9M16.3 199.9L0.999985 184.6L31.6 215.2" stroke="#5B5B60" stroke-width= "2px"/>
<path d="M62.2 92.7999L77.5 77.4999M92.8 62.2L77.5 77.4999M77.5 77.4999L62.2 62.2L92.8 92.7999" stroke="#5B5B60" stroke-width= "2px"/>
<path d="M62.2 31.6L77.5 16.3M92.8 1L77.5 16.3M77.5 16.3L62.2 1L92.8 31.6" stroke="#5B5B60" stroke-width= "2px"/>
<path d="M62.2 154L77.5 138.7M92.8 123.4L77.5 138.7M77.5 138.7L62.2 123.4L92.8 154" stroke="#5B5B60" stroke-width= "2px"/>
<path d="M62.2 215.2L77.5 199.9M92.8 184.6L77.5 199.9M77.5 199.9L62.2 184.6L92.8 215.2" stroke="#5B5B60" stroke-width= "2px"/>
<path d="M123.4 92.7999L138.7 77.4999M154 62.2L138.7 77.4999M138.7 77.4999L123.4 62.2L154 92.7999" stroke="#5B5B60" stroke-width= "2px"/>
<path d="M123.4 31.6L138.7 16.3M154 1L138.7 16.3M138.7 16.3L123.4 1L154 31.6" stroke="#5B5B60" stroke-width= "2px"/>
<path d="M123.4 154L138.7 138.7M154 123.4L138.7 138.7M138.7 138.7L123.4 123.4L154 154" stroke="#5B5B60" stroke-width= "2px"/>
<path d="M123.4 215.2L138.7 199.9M154 184.6L138.7 199.9M138.7 199.9L123.4 184.6L154 215.2" stroke="#5B5B60" stroke-width= "2px"/>
</svg>
