<svg width="70" height="70" viewBox="0 0 70 70" fill="none" xmlns="http://www.w3.org/2000/svg">
<g clip-path="url(#clip0_3_75)">
<path d="M35 15.3125C35 14.7323 34.7695 14.1759 34.3593 13.7657C33.9491 13.3555 33.3927 13.125 32.8125 13.125C32.2323 13.125 31.6759 13.3555 31.2657 13.7657C30.8555 14.1759 30.625 14.7323 30.625 15.3125V39.375C30.6251 39.7606 30.7272 40.1393 30.9208 40.4727C31.1144 40.8062 31.3927 41.0825 31.7275 41.2738L47.04 50.0238C47.5425 50.2953 48.1313 50.3596 48.6806 50.2028C49.2298 50.046 49.6959 49.6806 49.9793 49.1846C50.2627 48.6887 50.3409 48.1016 50.1971 47.5488C50.0534 46.9959 49.6991 46.5213 49.21 46.2262L35 38.1063V15.3125Z" fill="#4D4C4C"/>
<path d="M35 70C44.2826 70 53.185 66.3125 59.7487 59.7487C66.3125 53.185 70 44.2826 70 35C70 25.7174 66.3125 16.815 59.7487 10.2513C53.185 3.68749 44.2826 0 35 0C25.7174 0 16.815 3.68749 10.2513 10.2513C3.68749 16.815 0 25.7174 0 35C0 44.2826 3.68749 53.185 10.2513 59.7487C16.815 66.3125 25.7174 70 35 70ZM65.625 35C65.625 43.1223 62.3984 50.9118 56.6551 56.6551C50.9118 62.3984 43.1223 65.625 35 65.625C26.8777 65.625 19.0882 62.3984 13.3449 56.6551C7.60155 50.9118 4.375 43.1223 4.375 35C4.375 26.8777 7.60155 19.0882 13.3449 13.3449C19.0882 7.60155 26.8777 4.375 35 4.375C43.1223 4.375 50.9118 7.60155 56.6551 13.3449C62.3984 19.0882 65.625 26.8777 65.625 35Z" fill="#4D4C4C"/>
</g>
<defs>
<clipPath id="clip0_3_75">
<rect width="70" height="70" fill="white"/>
</clipPath>
</defs>
</svg>
