<svg width="144" height="144" viewBox="0 0 144 144" fill="none" xmlns="http://www.w3.org/2000/svg">
<rect width="144" height="144" rx="20" fill="url(#paint0_linear_9_1779)"/>
<g clip-path="url(#clip0_9_1779)">
<path d="M72 52.3125C72 51.7323 71.7695 51.1759 71.3593 50.7657C70.9491 50.3555 70.3927 50.125 69.8125 50.125C69.2323 50.125 68.6759 50.3555 68.2657 50.7657C67.8555 51.1759 67.625 51.7323 67.625 52.3125V76.375C67.6251 76.7606 67.7272 77.1393 67.9208 77.4727C68.1144 77.8062 68.3927 78.0825 68.7275 78.2738L84.04 87.0238C84.5425 87.2953 85.1313 87.3596 85.6806 87.2028C86.2298 87.046 86.6959 86.6806 86.9793 86.1846C87.2627 85.6887 87.3409 85.1016 87.1971 84.5488C87.0534 83.9959 86.6991 83.5213 86.21 83.2262L72 75.1063V52.3125Z" fill="white"/>
<path d="M72 107C81.2826 107 90.185 103.313 96.7487 96.7487C103.313 90.185 107 81.2826 107 72C107 62.7174 103.313 53.815 96.7487 47.2513C90.185 40.6875 81.2826 37 72 37C62.7174 37 53.815 40.6875 47.2513 47.2513C40.6875 53.815 37 62.7174 37 72C37 81.2826 40.6875 90.185 47.2513 96.7487C53.815 103.313 62.7174 107 72 107ZM102.625 72C102.625 80.1223 99.3984 87.9118 93.6551 93.6551C87.9118 99.3984 80.1223 102.625 72 102.625C63.8777 102.625 56.0882 99.3984 50.3449 93.6551C44.6016 87.9118 41.375 80.1223 41.375 72C41.375 63.8777 44.6016 56.0882 50.3449 50.3449C56.0882 44.6016 63.8777 41.375 72 41.375C80.1223 41.375 87.9118 44.6016 93.6551 50.3449C99.3984 56.0882 102.625 63.8777 102.625 72Z" fill="white"/>
</g>
<defs>
<linearGradient id="paint0_linear_9_1779" x1="72" y1="0" x2="72" y2="144" gradientUnits="userSpaceOnUse">
<stop stop-color="#E5AAC3"/>
<stop offset="1" stop-color="#9A52C7"/>
</linearGradient>
<clipPath id="clip0_9_1779">
<rect width="70" height="70" fill="white" transform="translate(37 37)"/>
</clipPath>
</defs>
</svg>
